<svg xmlns="http://www.w3.org/2000/svg" xmlns:xlink="http://www.w3.org/1999/xlink" height="600" width="600"><line x1="300" y1="300" x2="300" y2="400" style="fill:none;stroke:rgb(200,148,166)"></line><line x1="300" y1="400" x2="300" y2="305" style="fill:none;stroke:rgb(200,148,166)"></line><line x1="300" y1="305" x2="303" y2="405" style="fill:none;stroke:rgb(200,148,166)"></line><line x1="303" y1="405" x2="300" y2="310" style="fill:none;stroke:rgb(200,148,166)"></line><line x1="300" y1="310" x2="307" y2="410" style="fill:none;stroke:rgb(200,148,166)"></line><line x1="307" y1="410" x2="300" y2="315" style="fill:none;stroke:rgb(200,148,166)"></line><line x1="300" y1="315" x2="310" y2="414" style="fill:none;stroke:rgb(200,148,166)"></line><line x1="310" y1="414" x2="300" y2="320" style="fill:none;stroke:rgb(200,148,166)"></line><line x1="300" y1="320" x2="314" y2="419" style="fill:none;stroke:rgb(200,148,166)"></line><line x1="314" y1="419" x2="301" y2="325" style="fill:none;stroke:rgb(200,148,166)"></line><line x1="301" y1="325" x2="318" y2="423" style="fill:none;stroke:rgb(200,148,166)"></line><line x1="318" y1="423" x2="302" y2="329" style="fill:none;stroke:rgb(200,148,166)"></line><line x1="302" y1="329" x2="323" y2="427" style="fill:none;stroke:rgb(200,148,166)"></line><line x1="323" y1="427" x2="303" y2="334" style="fill:none;stroke:rgb(200,148,166)"></line><line x1="303" y1="334" x2="327" y2="431" style="fill:none;stroke:rgb(200,148,166)"></line><line x1="327" y1="431" x2="304" y2="339" style="fill:none;stroke:rgb(200,148,166)"></line><line x1="304" y1="339" x2="332" y2="435" style="fill:none;stroke:rgb(200,148,166)"></line><line x1="332" y1="435" x2="306" y2="344" style="fill:none;stroke:rgb(200,148,166)"></line><line x1="306" y1="344" x2="337" y2="439" style="fill:none;stroke:rgb(200,148,166)"></line><line x1="337" y1="439" x2="308" y2="349" style="fill:none;stroke:rgb(200,148,166)"></line><line x1="308" y1="349" x2="342" y2="443" style="fill:none;stroke:rgb(200,148,166)"></line><line x1="342" y1="443" x2="310" y2="354" style="fill:none;stroke:rgb(200,148,166)"></line><line x1="310" y1="354" x2="347" y2="447" style="fill:none;stroke:rgb(200,148,166)"></line><line x1="347" y1="447" x2="311" y2="359" style="fill:none;stroke:rgb(200,148,166)"></line><line x1="311" y1="359" x2="352" y2="450" style="fill:none;stroke:rgb(200,148,166)"></line><line x1="352" y1="450" x2="313" y2="363" style="fill:none;stroke:rgb(200,148,166)"></line><line x1="313" y1="363" x2="357" y2="453" style="fill:none;stroke:rgb(200,148,166)"></line><line x1="357" y1="453" x2="315" y2="368" style="fill:none;stroke:rgb(200,148,166)"></line><line x1="315" y1="368" x2="362" y2="456" style="fill:none;stroke:rgb(200,148,166)"></line><line x1="362" y1="456" x2="317" y2="372" style="fill:none;stroke:rgb(200,148,166)"></line><line x1="317" y1="372" x2="367" y2="459" style="fill:none;stroke:rgb(200,148,166)"></line><line x1="367" y1="459" x2="320" y2="377" style="fill:none;stroke:rgb(200,148,166)"></line><line x1="320" y1="377" x2="373" y2="462" style="fill:none;stroke:rgb(200,148,166)"></line><line x1="373" y1="462" x2="323" y2="381" style="fill:none;stroke:rgb(200,148,166)"></line><line x1="323" y1="381" x2="379" y2="464" style="fill:none;stroke:rgb(200,148,166)"></line><line x1="379" y1="464" x2="326" y2="385" style="fill:none;stroke:rgb(200,148,166)"></line><line x1="326" y1="385" x2="385" y2="466" style="fill:none;stroke:rgb(200,148,166)"></line><line x1="385" y1="466" x2="329" y2="389" style="fill:none;stroke:rgb(200,148,166)"></line><line x1="329" y1="389" x2="391" y2="468" style="fill:none;stroke:rgb(200,148,166)"></line><line x1="391" y1="468" x2="333" y2="393" style="fill:none;stroke:rgb(200,148,166)"></line><line x1="333" y1="393" x2="397" y2="470" style="fill:none;stroke:rgb(200,148,166)"></line><line x1="397" y1="470" x2="336" y2="397" style="fill:none;stroke:rgb(200,148,166)"></line><line x1="336" y1="397" x2="269" y2="323" style="fill:none;stroke:rgb(161,234,68)"></line><line x1="269" y1="323" x2="333" y2="394" style="fill:none;stroke:rgb(161,234,68)"></line><line x1="333" y1="394" x2="264" y2="322" style="fill:none;stroke:rgb(161,234,68)"></line><line x1="264" y1="322" x2="330" y2="390" style="fill:none;stroke:rgb(161,234,68)"></line><line x1="330" y1="390" x2="258" y2="321" style="fill:none;stroke:rgb(161,234,68)"></line><line x1="258" y1="321" x2="326" y2="387" style="fill:none;stroke:rgb(161,234,68)"></line><line x1="326" y1="387" x2="252" y2="320" style="fill:none;stroke:rgb(161,234,68)"></line><line x1="252" y1="320" x2="323" y2="384" style="fill:none;stroke:rgb(161,234,68)"></line><line x1="323" y1="384" x2="246" y2="320" style="fill:none;stroke:rgb(161,234,68)"></line><line x1="246" y1="320" x2="319" y2="381" style="fill:none;stroke:rgb(161,234,68)"></line><line x1="319" y1="381" x2="240" y2="319" style="fill:none;stroke:rgb(161,234,68)"></line><line x1="240" y1="319" x2="315" y2="377" style="fill:none;stroke:rgb(161,234,68)"></line><line x1="315" y1="377" x2="234" y2="318" style="fill:none;stroke:rgb(161,234,68)"></line><line x1="234" y1="318" x2="311" y2="374" style="fill:none;stroke:rgb(161,234,68)"></line><line x1="311" y1="374" x2="228" y2="318" style="fill:none;stroke:rgb(161,234,68)"></line><line x1="228" y1="318" x2="307" y2="371" style="fill:none;stroke:rgb(161,234,68)"></line><line x1="307" y1="371" x2="222" y2="318" style="fill:none;stroke:rgb(161,234,68)"></line><line x1="222" y1="318" x2="303" y2="368" style="fill:none;stroke:rgb(161,234,68)"></line><line x1="303" y1="368" x2="216" y2="318" style="fill:none;stroke:rgb(161,234,68)"></line><line x1="216" y1="318" x2="298" y2="366" style="fill:none;stroke:rgb(161,234,68)"></line><line x1="298" y1="366" x2="210" y2="319" style="fill:none;stroke:rgb(161,234,68)"></line><line x1="210" y1="319" x2="294" y2="364" style="fill:none;stroke:rgb(161,234,68)"></line><line x1="294" y1="364" x2="204" y2="320" style="fill:none;stroke:rgb(161,234,68)"></line><line x1="204" y1="320" x2="289" y2="362" style="fill:none;stroke:rgb(161,234,68)"></line><line x1="289" y1="362" x2="198" y2="321" style="fill:none;stroke:rgb(161,234,68)"></line><line x1="198" y1="321" x2="285" y2="360" style="fill:none;stroke:rgb(161,234,68)"></line><line x1="285" y1="360" x2="192" y2="323" style="fill:none;stroke:rgb(161,234,68)"></line><line x1="192" y1="323" x2="280" y2="359" style="fill:none;stroke:rgb(161,234,68)"></line><line x1="280" y1="359" x2="186" y2="325" style="fill:none;stroke:rgb(161,234,68)"></line><line x1="186" y1="325" x2="275" y2="357" style="fill:none;stroke:rgb(161,234,68)"></line><line x1="275" y1="357" x2="180" y2="326" style="fill:none;stroke:rgb(161,234,68)"></line><line x1="180" y1="326" x2="270" y2="355" style="fill:none;stroke:rgb(161,234,68)"></line><line x1="270" y1="355" x2="174" y2="327" style="fill:none;stroke:rgb(161,234,68)"></line><line x1="174" y1="327" x2="265" y2="353" style="fill:none;stroke:rgb(161,234,68)"></line><line x1="265" y1="353" x2="168" y2="329" style="fill:none;stroke:rgb(161,234,68)"></line><line x1="168" y1="329" x2="260" y2="352" style="fill:none;stroke:rgb(161,234,68)"></line><line x1="260" y1="352" x2="162" y2="331" style="fill:none;stroke:rgb(161,234,68)"></line><line x1="162" y1="331" x2="255" y2="351" style="fill:none;stroke:rgb(161,234,68)"></line><line x1="255" y1="351" x2="157" y2="334" style="fill:none;stroke:rgb(161,234,68)"></line><line x1="157" y1="334" x2="251" y2="350" style="fill:none;stroke:rgb(161,234,68)"></line><line x1="251" y1="350" x2="350" y2="364" style="fill:none;stroke:rgb(211,167,83)"></line><line x1="350" y1="364" x2="256" y2="351" style="fill:none;stroke:rgb(211,167,83)"></line><line x1="256" y1="351" x2="355" y2="361" style="fill:none;stroke:rgb(211,167,83)"></line><line x1="355" y1="361" x2="261" y2="351" style="fill:none;stroke:rgb(211,167,83)"></line><line x1="261" y1="351" x2="361" y2="358" style="fill:none;stroke:rgb(211,167,83)"></line><line x1="361" y1="358" x2="266" y2="351" style="fill:none;stroke:rgb(211,167,83)"></line><line x1="266" y1="351" x2="366" y2="354" style="fill:none;stroke:rgb(211,167,83)"></line><line x1="366" y1="354" x2="271" y2="351" style="fill:none;stroke:rgb(211,167,83)"></line><line x1="271" y1="351" x2="371" y2="351" style="fill:none;stroke:rgb(211,167,83)"></line><line x1="371" y1="351" x2="276" y2="351" style="fill:none;stroke:rgb(211,167,83)"></line><line x1="276" y1="351" x2="376" y2="348" style="fill:none;stroke:rgb(211,167,83)"></line><line x1="376" y1="348" x2="281" y2="351" style="fill:none;stroke:rgb(211,167,83)"></line><line x1="281" y1="351" x2="381" y2="344" style="fill:none;stroke:rgb(211,167,83)"></line><line x1="381" y1="344" x2="286" y2="351" style="fill:none;stroke:rgb(211,167,83)"></line><line x1="286" y1="351" x2="385" y2="341" style="fill:none;stroke:rgb(211,167,83)"></line><line x1="385" y1="341" x2="291" y2="351" style="fill:none;stroke:rgb(211,167,83)"></line><line x1="291" y1="351" x2="390" y2="337" style="fill:none;stroke:rgb(211,167,83)"></line><line x1="390" y1="337" x2="296" y2="350" style="fill:none;stroke:rgb(211,167,83)"></line><line x1="296" y1="350" x2="394" y2="333" style="fill:none;stroke:rgb(211,167,83)"></line><line x1="394" y1="333" x2="300" y2="349" style="fill:none;stroke:rgb(211,167,83)"></line><line x1="300" y1="349" x2="398" y2="328" style="fill:none;stroke:rgb(211,167,83)"></line><line x1="398" y1="328" x2="305" y2="348" style="fill:none;stroke:rgb(211,167,83)"></line><line x1="305" y1="348" x2="402" y2="324" style="fill:none;stroke:rgb(211,167,83)"></line><line x1="402" y1="324" x2="310" y2="347" style="fill:none;stroke:rgb(211,167,83)"></line><line x1="310" y1="347" x2="406" y2="319" style="fill:none;stroke:rgb(211,167,83)"></line><line x1="406" y1="319" x2="315" y2="345" style="fill:none;stroke:rgb(211,167,83)"></line><line x1="315" y1="345" x2="410" y2="314" style="fill:none;stroke:rgb(211,167,83)"></line><line x1="410" y1="314" x2="320" y2="343" style="fill:none;stroke:rgb(211,167,83)"></line><line x1="320" y1="343" x2="414" y2="309" style="fill:none;stroke:rgb(211,167,83)"></line><line x1="414" y1="309" x2="325" y2="341" style="fill:none;stroke:rgb(211,167,83)"></line><line x1="325" y1="341" x2="418" y2="304" style="fill:none;stroke:rgb(211,167,83)"></line><line x1="418" y1="304" x2="330" y2="340" style="fill:none;stroke:rgb(211,167,83)"></line><line x1="330" y1="340" x2="421" y2="299" style="fill:none;stroke:rgb(211,167,83)"></line><line x1="421" y1="299" x2="334" y2="338" style="fill:none;stroke:rgb(211,167,83)"></line><line x1="334" y1="338" x2="424" y2="294" style="fill:none;stroke:rgb(211,167,83)"></line><line x1="424" y1="294" x2="339" y2="336" style="fill:none;stroke:rgb(211,167,83)"></line><line x1="339" y1="336" x2="427" y2="289" style="fill:none;stroke:rgb(211,167,83)"></line><line x1="427" y1="289" x2="343" y2="334" style="fill:none;stroke:rgb(211,167,83)"></line><line x1="343" y1="334" x2="430" y2="284" style="fill:none;stroke:rgb(211,167,83)"></line><line x1="430" y1="284" x2="348" y2="332" style="fill:none;stroke:rgb(211,167,83)"></line><line x1="348" y1="332" x2="433" y2="279" style="fill:none;stroke:rgb(211,167,83)"></line><line x1="433" y1="279" x2="352" y2="329" style="fill:none;stroke:rgb(211,167,83)"></line><line x1="352" y1="329" x2="435" y2="273" style="fill:none;stroke:rgb(211,167,83)"></line><line x1="435" y1="273" x2="356" y2="326" style="fill:none;stroke:rgb(211,167,83)"></line><line x1="356" y1="326" x2="437" y2="267" style="fill:none;stroke:rgb(211,167,83)"></line><line x1="437" y1="267" x2="360" y2="323" style="fill:none;stroke:rgb(211,167,83)"></line><line x1="360" y1="323" x2="439" y2="261" style="fill:none;stroke:rgb(211,167,83)"></line><line x1="439" y1="261" x2="364" y2="319" style="fill:none;stroke:rgb(211,167,83)"></line><line x1="364" y1="319" x2="441" y2="255" style="fill:none;stroke:rgb(211,167,83)"></line><line x1="441" y1="255" x2="368" y2="316" style="fill:none;stroke:rgb(211,167,83)"></line><line x1="368" y1="316" x2="442" y2="249" style="fill:none;stroke:rgb(211,167,83)"></line><line x1="442" y1="249" x2="371" y2="313" style="fill:none;stroke:rgb(211,167,83)"></line><line x1="371" y1="313" x2="443" y2="244" style="fill:none;stroke:rgb(211,167,83)"></line><line x1="443" y1="244" x2="375" y2="310" style="fill:none;stroke:rgb(211,167,83)"></line><line x1="375" y1="310" x2="444" y2="238" style="fill:none;stroke:rgb(211,167,83)"></line><line x1="444" y1="238" x2="378" y2="306" style="fill:none;stroke:rgb(211,167,83)"></line><line x1="378" y1="306" x2="445" y2="232" style="fill:none;stroke:rgb(211,167,83)"></line><line x1="445" y1="232" x2="381" y2="303" style="fill:none;stroke:rgb(211,167,83)"></line><line x1="381" y1="303" x2="445" y2="226" style="fill:none;stroke:rgb(211,167,83)"></line><line x1="445" y1="226" x2="384" y2="299" style="fill:none;stroke:rgb(211,167,83)"></line><line x1="384" y1="299" x2="446" y2="220" style="fill:none;stroke:rgb(211,167,83)"></line><line x1="446" y1="220" x2="388" y2="295" style="fill:none;stroke:rgb(211,167,83)"></line><line x1="388" y1="295" x2="447" y2="214" style="fill:none;stroke:rgb(211,167,83)"></line><line x1="447" y1="214" x2="391" y2="291" style="fill:none;stroke:rgb(211,167,83)"></line><line x1="391" y1="291" x2="447" y2="208" style="fill:none;stroke:rgb(211,167,83)"></line><line x1="447" y1="208" x2="394" y2="287" style="fill:none;stroke:rgb(211,167,83)"></line><line x1="394" y1="287" x2="447" y2="202" style="fill:none;stroke:rgb(211,167,83)"></line><line x1="447" y1="202" x2="397" y2="283" style="fill:none;stroke:rgb(211,167,83)"></line><line x1="397" y1="283" x2="447" y2="196" style="fill:none;stroke:rgb(211,167,83)"></line><line x1="447" y1="196" x2="400" y2="278" style="fill:none;stroke:rgb(211,167,83)"></line><line x1="400" y1="278" x2="447" y2="190" style="fill:none;stroke:rgb(211,167,83)"></line><line x1="447" y1="190" x2="402" y2="274" style="fill:none;stroke:rgb(211,167,83)"></line><line x1="402" y1="274" x2="446" y2="184" style="fill:none;stroke:rgb(211,167,83)"></line><line x1="446" y1="184" x2="404" y2="269" style="fill:none;stroke:rgb(211,167,83)"></line><line x1="404" y1="269" x2="363" y2="360" style="fill:none;stroke:rgb(99,233,124)"></line><line x1="363" y1="360" x2="402" y2="273" style="fill:none;stroke:rgb(99,233,124)"></line><line x1="402" y1="273" x2="365" y2="366" style="fill:none;stroke:rgb(99,233,124)"></line><line x1="365" y1="366" x2="401" y2="278" style="fill:none;stroke:rgb(99,233,124)"></line><line x1="401" y1="278" x2="367" y2="372" style="fill:none;stroke:rgb(99,233,124)"></line><line x1="367" y1="372" x2="399" y2="283" style="fill:none;stroke:rgb(99,233,124)"></line><line x1="399" y1="283" x2="368" y2="378" style="fill:none;stroke:rgb(99,233,124)"></line><line x1="368" y1="378" x2="397" y2="288" style="fill:none;stroke:rgb(99,233,124)"></line><line x1="397" y1="288" x2="369" y2="384" style="fill:none;stroke:rgb(99,233,124)"></line><line x1="369" y1="384" x2="395" y2="293" style="fill:none;stroke:rgb(99,233,124)"></line><line x1="395" y1="293" x2="371" y2="390" style="fill:none;stroke:rgb(99,233,124)"></line><line x1="371" y1="390" x2="394" y2="298" style="fill:none;stroke:rgb(99,233,124)"></line><line x1="394" y1="298" x2="373" y2="396" style="fill:none;stroke:rgb(99,233,124)"></line><line x1="373" y1="396" x2="393" y2="303" style="fill:none;stroke:rgb(99,233,124)"></line><line x1="393" y1="303" x2="376" y2="401" style="fill:none;stroke:rgb(99,233,124)"></line><line x1="376" y1="401" x2="392" y2="307" style="fill:none;stroke:rgb(99,233,124)"></line><line x1="392" y1="307" x2="378" y2="406" style="fill:none;stroke:rgb(99,233,124)"></line><line x1="378" y1="406" x2="391" y2="312" style="fill:none;stroke:rgb(99,233,124)"></line><line x1="391" y1="312" x2="381" y2="411" style="fill:none;stroke:rgb(99,233,124)"></line><line x1="381" y1="411" x2="391" y2="317" style="fill:none;stroke:rgb(99,233,124)"></line><line x1="391" y1="317" x2="384" y2="417" style="fill:none;stroke:rgb(99,233,124)"></line><line x1="384" y1="417" x2="391" y2="322" style="fill:none;stroke:rgb(99,233,124)"></line><line x1="391" y1="322" x2="388" y2="422" style="fill:none;stroke:rgb(99,233,124)"></line><line x1="388" y1="422" x2="391" y2="327" style="fill:none;stroke:rgb(99,233,124)"></line><line x1="391" y1="327" x2="391" y2="227" style="fill:none;stroke:rgb(188,93,254)"></line><line x1="391" y1="227" x2="391" y2="322" style="fill:none;stroke:rgb(188,93,254)"></line><line x1="391" y1="322" x2="388" y2="222" style="fill:none;stroke:rgb(188,93,254)"></line><line x1="388" y1="222" x2="391" y2="317" style="fill:none;stroke:rgb(188,93,254)"></line><line x1="391" y1="317" x2="384" y2="217" style="fill:none;stroke:rgb(188,93,254)"></line><line x1="384" y1="217" x2="391" y2="312" style="fill:none;stroke:rgb(188,93,254)"></line><line x1="391" y1="312" x2="401" y2="411" style="fill:none;stroke:rgb(158,144,51)"></line><line x1="401" y1="411" x2="391" y2="317" style="fill:none;stroke:rgb(158,144,51)"></line><line x1="391" y1="317" x2="405" y2="416" style="fill:none;stroke:rgb(158,144,51)"></line><line x1="405" y1="416" x2="392" y2="322" style="fill:none;stroke:rgb(158,144,51)"></line><line x1="392" y1="322" x2="409" y2="420" style="fill:none;stroke:rgb(158,144,51)"></line><line x1="409" y1="420" x2="393" y2="326" style="fill:none;stroke:rgb(158,144,51)"></line><line x1="393" y1="326" x2="414" y2="424" style="fill:none;stroke:rgb(158,144,51)"></line><line x1="414" y1="424" x2="394" y2="331" style="fill:none;stroke:rgb(158,144,51)"></line><line x1="394" y1="331" x2="418" y2="428" style="fill:none;stroke:rgb(158,144,51)"></line><line x1="418" y1="428" x2="395" y2="336" style="fill:none;stroke:rgb(158,144,51)"></line><line x1="395" y1="336" x2="423" y2="432" style="fill:none;stroke:rgb(158,144,51)"></line><line x1="423" y1="432" x2="397" y2="341" style="fill:none;stroke:rgb(158,144,51)"></line><line x1="397" y1="341" x2="428" y2="436" style="fill:none;stroke:rgb(158,144,51)"></line><line x1="428" y1="436" x2="399" y2="346" style="fill:none;stroke:rgb(158,144,51)"></line><line x1="399" y1="346" x2="433" y2="440" style="fill:none;stroke:rgb(158,144,51)"></line><line x1="433" y1="440" x2="401" y2="351" style="fill:none;stroke:rgb(158,144,51)"></line><line x1="401" y1="351" x2="438" y2="444" style="fill:none;stroke:rgb(158,144,51)"></line><line x1="438" y1="444" x2="402" y2="356" style="fill:none;stroke:rgb(158,144,51)"></line><line x1="402" y1="356" x2="443" y2="447" style="fill:none;stroke:rgb(158,144,51)"></line><line x1="443" y1="447" x2="404" y2="360" style="fill:none;stroke:rgb(158,144,51)"></line><line x1="404" y1="360" x2="448" y2="450" style="fill:none;stroke:rgb(158,144,51)"></line><line x1="448" y1="450" x2="406" y2="365" style="fill:none;stroke:rgb(158,144,51)"></line><line x1="406" y1="365" x2="453" y2="453" style="fill:none;stroke:rgb(158,144,51)"></line><line x1="453" y1="453" x2="408" y2="369" style="fill:none;stroke:rgb(158,144,51)"></line><line x1="408" y1="369" x2="458" y2="456" style="fill:none;stroke:rgb(158,144,51)"></line><line x1="458" y1="456" x2="410" y2="374" style="fill:none;stroke:rgb(158,144,51)"></line><line x1="410" y1="374" x2="463" y2="459" style="fill:none;stroke:rgb(158,144,51)"></line><line x1="463" y1="459" x2="413" y2="378" style="fill:none;stroke:rgb(158,144,51)"></line><line x1="413" y1="378" x2="469" y2="461" style="fill:none;stroke:rgb(158,144,51)"></line><line x1="469" y1="461" x2="416" y2="382" style="fill:none;stroke:rgb(158,144,51)"></line><line x1="416" y1="382" x2="475" y2="463" style="fill:none;stroke:rgb(158,144,51)"></line><line x1="475" y1="463" x2="419" y2="386" style="fill:none;stroke:rgb(158,144,51)"></line><line x1="419" y1="386" x2="481" y2="465" style="fill:none;stroke:rgb(158,144,51)"></line><line x1="481" y1="465" x2="423" y2="390" style="fill:none;stroke:rgb(158,144,51)"></line><line x1="423" y1="390" x2="487" y2="467" style="fill:none;stroke:rgb(158,144,51)"></line><line x1="487" y1="467" x2="426" y2="394" style="fill:none;stroke:rgb(158,144,51)"></line><line x1="426" y1="394" x2="493" y2="468" style="fill:none;stroke:rgb(158,144,51)"></line><line x1="493" y1="468" x2="429" y2="397" style="fill:none;stroke:rgb(158,144,51)"></line><line x1="429" y1="397" x2="498" y2="469" style="fill:none;stroke:rgb(158,144,51)"></line><line x1="498" y1="469" x2="432" y2="401" style="fill:none;stroke:rgb(158,144,51)"></line><line x1="432" y1="401" x2="504" y2="470" style="fill:none;stroke:rgb(158,144,51)"></line><line x1="504" y1="470" x2="436" y2="404" style="fill:none;stroke:rgb(158,144,51)"></line><line x1="436" y1="404" x2="510" y2="471" style="fill:none;stroke:rgb(158,144,51)"></line><line x1="510" y1="471" x2="439" y2="407" style="fill:none;stroke:rgb(158,144,51)"></line><line x1="439" y1="407" x2="516" y2="471" style="fill:none;stroke:rgb(158,144,51)"></line><line x1="516" y1="471" x2="443" y2="410" style="fill:none;stroke:rgb(158,144,51)"></line><line x1="443" y1="410" x2="522" y2="472" style="fill:none;stroke:rgb(158,144,51)"></line><line x1="522" y1="472" x2="447" y2="414" style="fill:none;stroke:rgb(158,144,51)"></line><line x1="447" y1="414" x2="528" y2="473" style="fill:none;stroke:rgb(158,144,51)"></line><line x1="528" y1="473" x2="451" y2="417" style="fill:none;stroke:rgb(158,144,51)"></line><line x1="451" y1="417" x2="534" y2="473" style="fill:none;stroke:rgb(158,144,51)"></line><line x1="534" y1="473" x2="455" y2="420" style="fill:none;stroke:rgb(158,144,51)"></line><line x1="455" y1="420" x2="540" y2="473" style="fill:none;stroke:rgb(158,144,51)"></line><line x1="540" y1="473" x2="459" y2="423" style="fill:none;stroke:rgb(158,144,51)"></line><line x1="459" y1="423" x2="546" y2="473" style="fill:none;stroke:rgb(158,144,51)"></line><line x1="546" y1="473" x2="464" y2="426" style="fill:none;stroke:rgb(158,144,51)"></line><line x1="464" y1="426" x2="552" y2="473" style="fill:none;stroke:rgb(158,144,51)"></line><line x1="552" y1="473" x2="468" y2="428" style="fill:none;stroke:rgb(158,144,51)"></line><line x1="468" y1="428" x2="558" y2="472" style="fill:none;stroke:rgb(158,144,51)"></line><line x1="558" y1="472" x2="473" y2="430" style="fill:none;stroke:rgb(158,144,51)"></line><line x1="473" y1="430" x2="564" y2="471" style="fill:none;stroke:rgb(158,144,51)"></line><line x1="564" y1="471" x2="477" y2="432" style="fill:none;stroke:rgb(158,144,51)"></line><line x1="477" y1="432" x2="384" y2="395" style="fill:none;stroke:rgb(220,80,146)"></line><line x1="384" y1="395" x2="472" y2="431" style="fill:none;stroke:rgb(220,80,146)"></line><line x1="472" y1="431" x2="378" y2="397" style="fill:none;stroke:rgb(220,80,146)"></line><line x1="378" y1="397" x2="467" y2="429" style="fill:none;stroke:rgb(220,80,146)"></line><line x1="467" y1="429" x2="372" y2="398" style="fill:none;stroke:rgb(220,80,146)"></line><line x1="372" y1="398" x2="462" y2="427" style="fill:none;stroke:rgb(220,80,146)"></line><line x1="462" y1="427" x2="366" y2="399" style="fill:none;stroke:rgb(220,80,146)"></line><line x1="366" y1="399" x2="457" y2="425" style="fill:none;stroke:rgb(220,80,146)"></line><line x1="457" y1="425" x2="360" y2="401" style="fill:none;stroke:rgb(220,80,146)"></line><line x1="360" y1="401" x2="452" y2="424" style="fill:none;stroke:rgb(220,80,146)"></line><line x1="452" y1="424" x2="354" y2="403" style="fill:none;stroke:rgb(220,80,146)"></line><line x1="354" y1="403" x2="447" y2="423" style="fill:none;stroke:rgb(220,80,146)"></line><line x1="447" y1="423" x2="349" y2="406" style="fill:none;stroke:rgb(220,80,146)"></line><line x1="349" y1="406" x2="443" y2="422" style="fill:none;stroke:rgb(220,80,146)"></line><line x1="443" y1="422" x2="344" y2="408" style="fill:none;stroke:rgb(220,80,146)"></line><line x1="344" y1="408" x2="438" y2="421" style="fill:none;stroke:rgb(220,80,146)"></line><line x1="438" y1="421" x2="339" y2="411" style="fill:none;stroke:rgb(220,80,146)"></line><line x1="339" y1="411" x2="433" y2="421" style="fill:none;stroke:rgb(220,80,146)"></line><line x1="433" y1="421" x2="333" y2="414" style="fill:none;stroke:rgb(220,80,146)"></line><line x1="333" y1="414" x2="428" y2="421" style="fill:none;stroke:rgb(220,80,146)"></line><line x1="428" y1="421" x2="328" y2="418" style="fill:none;stroke:rgb(220,80,146)"></line><line x1="328" y1="418" x2="423" y2="421" style="fill:none;stroke:rgb(220,80,146)"></line><line x1="423" y1="421" x2="323" y2="421" style="fill:none;stroke:rgb(220,80,146)"></line><line x1="323" y1="421" x2="418" y2="421" style="fill:none;stroke:rgb(220,80,146)"></line><line x1="418" y1="421" x2="318" y2="424" style="fill:none;stroke:rgb(220,80,146)"></line><line x1="318" y1="424" x2="413" y2="421" style="fill:none;stroke:rgb(220,80,146)"></line><line x1="413" y1="421" x2="313" y2="428" style="fill:none;stroke:rgb(220,80,146)"></line><line x1="313" y1="428" x2="408" y2="421" style="fill:none;stroke:rgb(220,80,146)"></line><line x1="408" y1="421" x2="309" y2="431" style="fill:none;stroke:rgb(220,80,146)"></line><line x1="309" y1="431" x2="403" y2="421" style="fill:none;stroke:rgb(220,80,146)"></line><line x1="403" y1="421" x2="502" y2="407" style="fill:none;stroke:rgb(24,88,40)"></line><line x1="502" y1="407" x2="408" y2="420" style="fill:none;stroke:rgb(24,88,40)"></line><line x1="408" y1="420" x2="506" y2="403" style="fill:none;stroke:rgb(24,88,40)"></line><line x1="506" y1="403" x2="412" y2="419" style="fill:none;stroke:rgb(24,88,40)"></line><line x1="412" y1="419" x2="510" y2="398" style="fill:none;stroke:rgb(24,88,40)"></line><line x1="510" y1="398" x2="417" y2="418" style="fill:none;stroke:rgb(24,88,40)"></line><line x1="417" y1="418" x2="514" y2="394" style="fill:none;stroke:rgb(24,88,40)"></line><line x1="514" y1="394" x2="422" y2="417" style="fill:none;stroke:rgb(24,88,40)"></line><line x1="422" y1="417" x2="518" y2="389" style="fill:none;stroke:rgb(24,88,40)"></line><line x1="518" y1="389" x2="427" y2="415" style="fill:none;stroke:rgb(24,88,40)"></line><line x1="427" y1="415" x2="522" y2="384" style="fill:none;stroke:rgb(24,88,40)"></line><line x1="522" y1="384" x2="432" y2="413" style="fill:none;stroke:rgb(24,88,40)"></line><line x1="432" y1="413" x2="526" y2="379" style="fill:none;stroke:rgb(24,88,40)"></line><line x1="526" y1="379" x2="437" y2="411" style="fill:none;stroke:rgb(24,88,40)"></line><line x1="437" y1="411" x2="530" y2="374" style="fill:none;stroke:rgb(24,88,40)"></line><line x1="530" y1="374" x2="442" y2="410" style="fill:none;stroke:rgb(24,88,40)"></line><line x1="442" y1="410" x2="533" y2="369" style="fill:none;stroke:rgb(24,88,40)"></line><line x1="533" y1="369" x2="446" y2="408" style="fill:none;stroke:rgb(24,88,40)"></line><line x1="446" y1="408" x2="536" y2="364" style="fill:none;stroke:rgb(24,88,40)"></line><line x1="536" y1="364" x2="451" y2="406" style="fill:none;stroke:rgb(24,88,40)"></line><line x1="451" y1="406" x2="539" y2="359" style="fill:none;stroke:rgb(24,88,40)"></line><line x1="539" y1="359" x2="455" y2="404" style="fill:none;stroke:rgb(24,88,40)"></line><line x1="455" y1="404" x2="542" y2="354" style="fill:none;stroke:rgb(24,88,40)"></line><line x1="542" y1="354" x2="460" y2="402" style="fill:none;stroke:rgb(24,88,40)"></line><line x1="460" y1="402" x2="545" y2="349" style="fill:none;stroke:rgb(24,88,40)"></line><line x1="545" y1="349" x2="464" y2="399" style="fill:none;stroke:rgb(24,88,40)"></line><line x1="464" y1="399" x2="547" y2="343" style="fill:none;stroke:rgb(24,88,40)"></line><line x1="547" y1="343" x2="468" y2="396" style="fill:none;stroke:rgb(24,88,40)"></line><line x1="468" y1="396" x2="549" y2="337" style="fill:none;stroke:rgb(24,88,40)"></line><line x1="549" y1="337" x2="472" y2="393" style="fill:none;stroke:rgb(24,88,40)"></line><line x1="472" y1="393" x2="551" y2="331" style="fill:none;stroke:rgb(24,88,40)"></line><line x1="551" y1="331" x2="476" y2="389" style="fill:none;stroke:rgb(24,88,40)"></line><line x1="476" y1="389" x2="553" y2="325" style="fill:none;stroke:rgb(24,88,40)"></line><line x1="553" y1="325" x2="480" y2="386" style="fill:none;stroke:rgb(24,88,40)"></line><line x1="480" y1="386" x2="554" y2="319" style="fill:none;stroke:rgb(24,88,40)"></line><line x1="554" y1="319" x2="483" y2="383" style="fill:none;stroke:rgb(24,88,40)"></line><line x1="483" y1="383" x2="555" y2="314" style="fill:none;stroke:rgb(24,88,40)"></line><line x1="555" y1="314" x2="487" y2="380" style="fill:none;stroke:rgb(24,88,40)"></line><line x1="487" y1="380" x2="556" y2="308" style="fill:none;stroke:rgb(24,88,40)"></line><line x1="556" y1="308" x2="490" y2="376" style="fill:none;stroke:rgb(24,88,40)"></line><line x1="490" y1="376" x2="557" y2="302" style="fill:none;stroke:rgb(24,88,40)"></line><line x1="557" y1="302" x2="493" y2="373" style="fill:none;stroke:rgb(24,88,40)"></line><line x1="493" y1="373" x2="557" y2="296" style="fill:none;stroke:rgb(24,88,40)"></line><line x1="557" y1="296" x2="496" y2="369" style="fill:none;stroke:rgb(24,88,40)"></line><line x1="496" y1="369" x2="558" y2="290" style="fill:none;stroke:rgb(24,88,40)"></line><line x1="558" y1="290" x2="500" y2="365" style="fill:none;stroke:rgb(24,88,40)"></line><line x1="500" y1="365" x2="559" y2="284" style="fill:none;stroke:rgb(24,88,40)"></line><line x1="559" y1="284" x2="503" y2="361" style="fill:none;stroke:rgb(24,88,40)"></line><line x1="503" y1="361" x2="559" y2="278" style="fill:none;stroke:rgb(24,88,40)"></line><line x1="559" y1="278" x2="506" y2="357" style="fill:none;stroke:rgb(24,88,40)"></line><line x1="506" y1="357" x2="559" y2="272" style="fill:none;stroke:rgb(24,88,40)"></line><line x1="559" y1="272" x2="509" y2="353" style="fill:none;stroke:rgb(24,88,40)"></line><line x1="509" y1="353" x2="559" y2="266" style="fill:none;stroke:rgb(24,88,40)"></line><line x1="559" y1="266" x2="512" y2="348" style="fill:none;stroke:rgb(24,88,40)"></line><line x1="512" y1="348" x2="559" y2="260" style="fill:none;stroke:rgb(24,88,40)"></line><line x1="559" y1="260" x2="514" y2="344" style="fill:none;stroke:rgb(24,88,40)"></line><line x1="514" y1="344" x2="558" y2="254" style="fill:none;stroke:rgb(24,88,40)"></line><line x1="558" y1="254" x2="516" y2="339" style="fill:none;stroke:rgb(24,88,40)"></line><line x1="516" y1="339" x2="557" y2="248" style="fill:none;stroke:rgb(24,88,40)"></line><line x1="557" y1="248" x2="518" y2="335" style="fill:none;stroke:rgb(24,88,40)"></line><line x1="518" y1="335" x2="555" y2="242" style="fill:none;stroke:rgb(24,88,40)"></line><line x1="555" y1="242" x2="519" y2="330" style="fill:none;stroke:rgb(24,88,40)"></line><line x1="519" y1="330" x2="553" y2="236" style="fill:none;stroke:rgb(24,88,40)"></line><line x1="553" y1="236" x2="521" y2="325" style="fill:none;stroke:rgb(24,88,40)"></line><line x1="521" y1="325" x2="552" y2="230" style="fill:none;stroke:rgb(24,88,40)"></line><line x1="552" y1="230" x2="523" y2="320" style="fill:none;stroke:rgb(24,88,40)"></line><line x1="523" y1="320" x2="551" y2="224" style="fill:none;stroke:rgb(24,88,40)"></line><line x1="551" y1="224" x2="525" y2="315" style="fill:none;stroke:rgb(24,88,40)"></line><line x1="525" y1="315" x2="549" y2="218" style="fill:none;stroke:rgb(24,88,40)"></line><line x1="549" y1="218" x2="526" y2="310" style="fill:none;stroke:rgb(24,88,40)"></line><line x1="526" y1="310" x2="547" y2="212" style="fill:none;stroke:rgb(24,88,40)"></line><line x1="547" y1="212" x2="527" y2="305" style="fill:none;stroke:rgb(24,88,40)"></line><line x1="527" y1="305" x2="544" y2="207" style="fill:none;stroke:rgb(24,88,40)"></line><line x1="544" y1="207" x2="528" y2="301" style="fill:none;stroke:rgb(24,88,40)"></line><line x1="528" y1="301" x2="542" y2="202" style="fill:none;stroke:rgb(24,88,40)"></line><line x1="542" y1="202" x2="529" y2="296" style="fill:none;stroke:rgb(24,88,40)"></line><line x1="529" y1="296" x2="539" y2="197" style="fill:none;stroke:rgb(24,88,40)"></line><line x1="539" y1="197" x2="529" y2="291" style="fill:none;stroke:rgb(24,88,40)"></line><line x1="529" y1="291" x2="536" y2="191" style="fill:none;stroke:rgb(24,88,40)"></line><line x1="536" y1="191" x2="529" y2="286" style="fill:none;stroke:rgb(24,88,40)"></line><line x1="529" y1="286" x2="532" y2="186" style="fill:none;stroke:rgb(24,88,40)"></line><line x1="532" y1="186" x2="529" y2="281" style="fill:none;stroke:rgb(24,88,40)"></line><line x1="529" y1="281" x2="529" y2="181" style="fill:none;stroke:rgb(24,88,40)"></line><line x1="529" y1="181" x2="529" y2="276" style="fill:none;stroke:rgb(24,88,40)"></line><line x1="529" y1="276" x2="526" y2="176" style="fill:none;stroke:rgb(24,88,40)"></line><line x1="526" y1="176" x2="529" y2="271" style="fill:none;stroke:rgb(24,88,40)"></line><line x1="529" y1="271" x2="522" y2="171" style="fill:none;stroke:rgb(24,88,40)"></line><line x1="522" y1="171" x2="529" y2="266" style="fill:none;stroke:rgb(24,88,40)"></line><line x1="529" y1="266" x2="519" y2="167" style="fill:none;stroke:rgb(24,88,40)"></line><line x1="519" y1="167" x2="529" y2="261" style="fill:none;stroke:rgb(24,88,40)"></line><line x1="529" y1="261" x2="515" y2="162" style="fill:none;stroke:rgb(24,88,40)"></line><line x1="515" y1="162" x2="528" y2="256" style="fill:none;stroke:rgb(24,88,40)"></line><line x1="528" y1="256" x2="511" y2="158" style="fill:none;stroke:rgb(24,88,40)"></line><line x1="511" y1="158" x2="527" y2="252" style="fill:none;stroke:rgb(24,88,40)"></line><line x1="527" y1="252" x2="548" y2="350" style="fill:none;stroke:rgb(201,18,162)"></line><line x1="548" y1="350" x2="528" y2="257" style="fill:none;stroke:rgb(201,18,162)"></line><line x1="528" y1="257" x2="552" y2="354" style="fill:none;stroke:rgb(201,18,162)"></line><line x1="552" y1="354" x2="529" y2="262" style="fill:none;stroke:rgb(201,18,162)"></line><line x1="529" y1="262" x2="557" y2="358" style="fill:none;stroke:rgb(201,18,162)"></line><line x1="557" y1="358" x2="531" y2="267" style="fill:none;stroke:rgb(201,18,162)"></line><line x1="531" y1="267" x2="562" y2="362" style="fill:none;stroke:rgb(201,18,162)"></line><line x1="562" y1="362" x2="533" y2="272" style="fill:none;stroke:rgb(201,18,162)"></line><line x1="533" y1="272" x2="567" y2="366" style="fill:none;stroke:rgb(201,18,162)"></line><line x1="567" y1="366" x2="535" y2="277" style="fill:none;stroke:rgb(201,18,162)"></line><line x1="535" y1="277" x2="572" y2="370" style="fill:none;stroke:rgb(201,18,162)"></line><line x1="572" y1="370" x2="536" y2="282" style="fill:none;stroke:rgb(201,18,162)"></line><line x1="536" y1="282" x2="577" y2="373" style="fill:none;stroke:rgb(201,18,162)"></line><line x1="577" y1="373" x2="538" y2="286" style="fill:none;stroke:rgb(201,18,162)"></line><line x1="538" y1="286" x2="582" y2="376" style="fill:none;stroke:rgb(201,18,162)"></line><line x1="582" y1="376" x2="540" y2="291" style="fill:none;stroke:rgb(201,18,162)"></line><line x1="540" y1="291" x2="587" y2="379" style="fill:none;stroke:rgb(201,18,162)"></line><line x1="587" y1="379" x2="542" y2="295" style="fill:none;stroke:rgb(201,18,162)"></line><line x1="542" y1="295" x2="492" y2="208" style="fill:none;stroke:rgb(32,141,19)"></line><line x1="492" y1="208" x2="540" y2="290" style="fill:none;stroke:rgb(32,141,19)"></line><line x1="540" y1="290" x2="487" y2="205" style="fill:none;stroke:rgb(32,141,19)"></line><line x1="487" y1="205" x2="537" y2="286" style="fill:none;stroke:rgb(32,141,19)"></line><line x1="537" y1="286" x2="481" y2="203" style="fill:none;stroke:rgb(32,141,19)"></line><line x1="481" y1="203" x2="534" y2="282" style="fill:none;stroke:rgb(32,141,19)"></line><line x1="534" y1="282" x2="475" y2="201" style="fill:none;stroke:rgb(32,141,19)"></line><line x1="475" y1="201" x2="531" y2="278" style="fill:none;stroke:rgb(32,141,19)"></line><line x1="531" y1="278" x2="469" y2="199" style="fill:none;stroke:rgb(32,141,19)"></line><line x1="469" y1="199" x2="527" y2="274" style="fill:none;stroke:rgb(32,141,19)"></line><line x1="527" y1="274" x2="463" y2="197" style="fill:none;stroke:rgb(32,141,19)"></line><line x1="463" y1="197" x2="524" y2="270" style="fill:none;stroke:rgb(32,141,19)"></line><line x1="524" y1="270" x2="457" y2="196" style="fill:none;stroke:rgb(32,141,19)"></line><line x1="457" y1="196" x2="521" y2="267" style="fill:none;stroke:rgb(32,141,19)"></line><line x1="521" y1="267" x2="452" y2="195" style="fill:none;stroke:rgb(32,141,19)"></line><line x1="452" y1="195" x2="518" y2="263" style="fill:none;stroke:rgb(32,141,19)"></line><line x1="518" y1="263" x2="446" y2="194" style="fill:none;stroke:rgb(32,141,19)"></line><line x1="446" y1="194" x2="514" y2="260" style="fill:none;stroke:rgb(32,141,19)"></line><line x1="514" y1="260" x2="440" y2="193" style="fill:none;stroke:rgb(32,141,19)"></line><line x1="440" y1="193" x2="511" y2="257" style="fill:none;stroke:rgb(32,141,19)"></line><line x1="511" y1="257" x2="434" y2="193" style="fill:none;stroke:rgb(32,141,19)"></line><line x1="434" y1="193" x2="507" y2="254" style="fill:none;stroke:rgb(32,141,19)"></line><line x1="507" y1="254" x2="428" y2="192" style="fill:none;stroke:rgb(32,141,19)"></line><line x1="428" y1="192" x2="503" y2="250" style="fill:none;stroke:rgb(32,141,19)"></line><line x1="503" y1="250" x2="422" y2="191" style="fill:none;stroke:rgb(32,141,19)"></line><line x1="422" y1="191" x2="499" y2="247" style="fill:none;stroke:rgb(32,141,19)"></line><line x1="499" y1="247" x2="416" y2="191" style="fill:none;stroke:rgb(32,141,19)"></line><line x1="416" y1="191" x2="495" y2="244" style="fill:none;stroke:rgb(32,141,19)"></line><line x1="495" y1="244" x2="410" y2="191" style="fill:none;stroke:rgb(32,141,19)"></line><line x1="410" y1="191" x2="491" y2="241" style="fill:none;stroke:rgb(32,141,19)"></line><line x1="491" y1="241" x2="404" y2="191" style="fill:none;stroke:rgb(32,141,19)"></line><line x1="404" y1="191" x2="486" y2="238" style="fill:none;stroke:rgb(32,141,19)"></line><line x1="486" y1="238" x2="398" y2="191" style="fill:none;stroke:rgb(32,141,19)"></line><line x1="398" y1="191" x2="482" y2="236" style="fill:none;stroke:rgb(32,141,19)"></line><line x1="482" y1="236" x2="392" y2="192" style="fill:none;stroke:rgb(32,141,19)"></line><line x1="392" y1="192" x2="477" y2="234" style="fill:none;stroke:rgb(32,141,19)"></line><line x1="477" y1="234" x2="386" y2="193" style="fill:none;stroke:rgb(32,141,19)"></line><line x1="386" y1="193" x2="473" y2="232" style="fill:none;stroke:rgb(32,141,19)"></line><line x1="473" y1="232" x2="380" y2="195" style="fill:none;stroke:rgb(32,141,19)"></line><line x1="380" y1="195" x2="468" y2="231" style="fill:none;stroke:rgb(32,141,19)"></line><line x1="468" y1="231" x2="374" y2="197" style="fill:none;stroke:rgb(32,141,19)"></line><line x1="374" y1="197" x2="463" y2="229" style="fill:none;stroke:rgb(32,141,19)"></line><line x1="463" y1="229" x2="368" y2="198" style="fill:none;stroke:rgb(32,141,19)"></line><line x1="368" y1="198" x2="458" y2="227" style="fill:none;stroke:rgb(32,141,19)"></line><line x1="458" y1="227" x2="362" y2="199" style="fill:none;stroke:rgb(32,141,19)"></line><line x1="362" y1="199" x2="453" y2="225" style="fill:none;stroke:rgb(32,141,19)"></line><line x1="453" y1="225" x2="356" y2="201" style="fill:none;stroke:rgb(32,141,19)"></line><line x1="356" y1="201" x2="448" y2="224" style="fill:none;stroke:rgb(32,141,19)"></line><line x1="448" y1="224" x2="350" y2="203" style="fill:none;stroke:rgb(32,141,19)"></line><line x1="350" y1="203" x2="443" y2="223" style="fill:none;stroke:rgb(32,141,19)"></line><line x1="443" y1="223" x2="345" y2="206" style="fill:none;stroke:rgb(32,141,19)"></line><line x1="345" y1="206" x2="439" y2="222" style="fill:none;stroke:rgb(32,141,19)"></line><line x1="439" y1="222" x2="340" y2="208" style="fill:none;stroke:rgb(32,141,19)"></line><line x1="340" y1="208" x2="434" y2="221" style="fill:none;stroke:rgb(32,141,19)"></line><line x1="434" y1="221" x2="335" y2="211" style="fill:none;stroke:rgb(32,141,19)"></line><line x1="335" y1="211" x2="429" y2="221" style="fill:none;stroke:rgb(32,141,19)"></line><line x1="429" y1="221" x2="329" y2="214" style="fill:none;stroke:rgb(32,141,19)"></line><line x1="329" y1="214" x2="424" y2="221" style="fill:none;stroke:rgb(32,141,19)"></line><line x1="424" y1="221" x2="324" y2="218" style="fill:none;stroke:rgb(32,141,19)"></line><line x1="324" y1="218" x2="419" y2="221" style="fill:none;stroke:rgb(32,141,19)"></line><line x1="419" y1="221" x2="319" y2="221" style="fill:none;stroke:rgb(32,141,19)"></line><line x1="319" y1="221" x2="414" y2="221" style="fill:none;stroke:rgb(32,141,19)"></line><line x1="414" y1="221" x2="314" y2="224" style="fill:none;stroke:rgb(32,141,19)"></line><line x1="314" y1="224" x2="409" y2="221" style="fill:none;stroke:rgb(32,141,19)"></line><line x1="409" y1="221" x2="309" y2="228" style="fill:none;stroke:rgb(32,141,19)"></line><line x1="309" y1="228" x2="404" y2="221" style="fill:none;stroke:rgb(32,141,19)"></line><line x1="404" y1="221" x2="305" y2="231" style="fill:none;stroke:rgb(32,141,19)"></line><line x1="305" y1="231" x2="399" y2="221" style="fill:none;stroke:rgb(32,141,19)"></line><line x1="399" y1="221" x2="300" y2="235" style="fill:none;stroke:rgb(32,141,19)"></line><line x1="300" y1="235" x2="394" y2="222" style="fill:none;stroke:rgb(32,141,19)"></line><line x1="394" y1="222" x2="296" y2="239" style="fill:none;stroke:rgb(32,141,19)"></line><line x1="296" y1="239" x2="390" y2="223" style="fill:none;stroke:rgb(32,141,19)"></line><line x1="390" y1="223" x2="292" y2="244" style="fill:none;stroke:rgb(32,141,19)"></line><line x1="292" y1="244" x2="385" y2="224" style="fill:none;stroke:rgb(32,141,19)"></line><line x1="385" y1="224" x2="288" y2="248" style="fill:none;stroke:rgb(32,141,19)"></line><line x1="288" y1="248" x2="380" y2="225" style="fill:none;stroke:rgb(32,141,19)"></line><line x1="380" y1="225" x2="284" y2="253" style="fill:none;stroke:rgb(32,141,19)"></line><line x1="284" y1="253" x2="375" y2="227" style="fill:none;stroke:rgb(32,141,19)"></line><line x1="375" y1="227" x2="280" y2="258" style="fill:none;stroke:rgb(32,141,19)"></line><line x1="280" y1="258" x2="370" y2="229" style="fill:none;stroke:rgb(32,141,19)"></line><line x1="370" y1="229" x2="276" y2="263" style="fill:none;stroke:rgb(32,141,19)"></line><line x1="276" y1="263" x2="365" y2="231" style="fill:none;stroke:rgb(32,141,19)"></line><line x1="365" y1="231" x2="272" y2="268" style="fill:none;stroke:rgb(32,141,19)"></line><line x1="272" y1="268" x2="360" y2="232" style="fill:none;stroke:rgb(32,141,19)"></line><line x1="360" y1="232" x2="269" y2="273" style="fill:none;stroke:rgb(32,141,19)"></line><line x1="269" y1="273" x2="356" y2="234" style="fill:none;stroke:rgb(32,141,19)"></line><line x1="356" y1="234" x2="266" y2="278" style="fill:none;stroke:rgb(32,141,19)"></line><line x1="266" y1="278" x2="351" y2="236" style="fill:none;stroke:rgb(32,141,19)"></line><line x1="351" y1="236" x2="263" y2="283" style="fill:none;stroke:rgb(32,141,19)"></line><line x1="263" y1="283" x2="347" y2="238" style="fill:none;stroke:rgb(32,141,19)"></line><line x1="347" y1="238" x2="434" y2="188" style="fill:none;stroke:rgb(235,118,255)"></line><line x1="434" y1="188" x2="352" y2="236" style="fill:none;stroke:rgb(235,118,255)"></line><line x1="352" y1="236" x2="437" y2="183" style="fill:none;stroke:rgb(235,118,255)"></line><line x1="437" y1="183" x2="356" y2="233" style="fill:none;stroke:rgb(235,118,255)"></line><line x1="356" y1="233" x2="439" y2="177" style="fill:none;stroke:rgb(235,118,255)"></line><line x1="439" y1="177" x2="360" y2="230" style="fill:none;stroke:rgb(235,118,255)"></line><line x1="360" y1="230" x2="441" y2="171" style="fill:none;stroke:rgb(235,118,255)"></line><line x1="441" y1="171" x2="364" y2="227" style="fill:none;stroke:rgb(235,118,255)"></line><line x1="364" y1="227" x2="443" y2="165" style="fill:none;stroke:rgb(235,118,255)"></line><line x1="443" y1="165" x2="368" y2="223" style="fill:none;stroke:rgb(235,118,255)"></line><line x1="368" y1="223" x2="445" y2="159" style="fill:none;stroke:rgb(235,118,255)"></line><line x1="445" y1="159" x2="372" y2="220" style="fill:none;stroke:rgb(235,118,255)"></line><line x1="372" y1="220" x2="446" y2="153" style="fill:none;stroke:rgb(235,118,255)"></line><line x1="446" y1="153" x2="375" y2="217" style="fill:none;stroke:rgb(235,118,255)"></line><line x1="375" y1="217" x2="447" y2="148" style="fill:none;stroke:rgb(235,118,255)"></line><line x1="447" y1="148" x2="379" y2="214" style="fill:none;stroke:rgb(235,118,255)"></line><line x1="379" y1="214" x2="448" y2="142" style="fill:none;stroke:rgb(235,118,255)"></line><line x1="448" y1="142" x2="382" y2="210" style="fill:none;stroke:rgb(235,118,255)"></line><line x1="382" y1="210" x2="449" y2="136" style="fill:none;stroke:rgb(235,118,255)"></line><line x1="449" y1="136" x2="385" y2="207" style="fill:none;stroke:rgb(235,118,255)"></line><line x1="385" y1="207" x2="449" y2="130" style="fill:none;stroke:rgb(235,118,255)"></line><line x1="449" y1="130" x2="388" y2="203" style="fill:none;stroke:rgb(235,118,255)"></line><line x1="388" y1="203" x2="450" y2="124" style="fill:none;stroke:rgb(235,118,255)"></line><line x1="450" y1="124" x2="392" y2="199" style="fill:none;stroke:rgb(235,118,255)"></line><line x1="392" y1="199" x2="451" y2="118" style="fill:none;stroke:rgb(235,118,255)"></line><line x1="451" y1="118" x2="395" y2="195" style="fill:none;stroke:rgb(235,118,255)"></line><line x1="395" y1="195" x2="451" y2="112" style="fill:none;stroke:rgb(235,118,255)"></line><line x1="451" y1="112" x2="398" y2="191" style="fill:none;stroke:rgb(235,118,255)"></line><line x1="398" y1="191" x2="451" y2="106" style="fill:none;stroke:rgb(235,118,255)"></line><line x1="451" y1="106" x2="401" y2="187" style="fill:none;stroke:rgb(235,118,255)"></line><line x1="401" y1="187" x2="451" y2="100" style="fill:none;stroke:rgb(235,118,255)"></line><line x1="451" y1="100" x2="404" y2="182" style="fill:none;stroke:rgb(235,118,255)"></line><line x1="404" y1="182" x2="451" y2="94" style="fill:none;stroke:rgb(235,118,255)"></line><line x1="451" y1="94" x2="406" y2="178" style="fill:none;stroke:rgb(235,118,255)"></line><line x1="406" y1="178" x2="362" y2="268" style="fill:none;stroke:rgb(126,134,132)"></line><line x1="362" y1="268" x2="404" y2="183" style="fill:none;stroke:rgb(126,134,132)"></line><line x1="404" y1="183" x2="363" y2="274" style="fill:none;stroke:rgb(126,134,132)"></line><line x1="363" y1="274" x2="402" y2="187" style="fill:none;stroke:rgb(126,134,132)"></line><line x1="402" y1="187" x2="365" y2="280" style="fill:none;stroke:rgb(126,134,132)"></line><line x1="365" y1="280" x2="401" y2="192" style="fill:none;stroke:rgb(126,134,132)"></line><line x1="401" y1="192" x2="367" y2="286" style="fill:none;stroke:rgb(126,134,132)"></line><line x1="367" y1="286" x2="399" y2="197" style="fill:none;stroke:rgb(126,134,132)"></line><line x1="399" y1="197" x2="368" y2="292" style="fill:none;stroke:rgb(126,134,132)"></line><line x1="368" y1="292" x2="397" y2="202" style="fill:none;stroke:rgb(126,134,132)"></line><line x1="397" y1="202" x2="369" y2="298" style="fill:none;stroke:rgb(126,134,132)"></line><line x1="369" y1="298" x2="395" y2="207" style="fill:none;stroke:rgb(126,134,132)"></line><line x1="395" y1="207" x2="371" y2="304" style="fill:none;stroke:rgb(126,134,132)"></line><line x1="371" y1="304" x2="394" y2="212" style="fill:none;stroke:rgb(126,134,132)"></line></svg>