<svg xmlns="http://www.w3.org/2000/svg" xmlns:xlink="http://www.w3.org/1999/xlink" height="600" width="600"><line x1="300" y1="300" x2="400" y2="300" style="fill:none;stroke:rgb(92,246,238)"></line><line x1="400" y1="300" x2="400" y2="200" style="fill:none;stroke:rgb(92,246,238)"></line><line x1="400" y1="200" x2="300" y2="200" style="fill:none;stroke:rgb(92,246,238)"></line><line x1="300" y1="200" x2="300" y2="300" style="fill:none;stroke:rgb(92,246,238)"></line><line x1="300" y1="300" x2="300" y2="200" style="fill:none;stroke:rgb(92,246,238)"></line><line x1="300" y1="200" x2="371" y2="271" style="fill:none;stroke:rgb(121,44,223)"></line><line x1="371" y1="271" x2="442" y2="200" style="fill:none;stroke:rgb(121,44,223)"></line><line x1="442" y1="200" x2="371" y2="129" style="fill:none;stroke:rgb(121,44,223)"></line><line x1="371" y1="129" x2="300" y2="200" style="fill:none;stroke:rgb(121,44,223)"></line><line x1="300" y1="200" x2="371" y2="129" style="fill:none;stroke:rgb(121,44,223)"></line><line x1="371" y1="129" x2="371" y2="229" style="fill:none;stroke:rgb(5,225,186)"></line><line x1="371" y1="229" x2="471" y2="229" style="fill:none;stroke:rgb(5,225,186)"></line><line x1="471" y1="229" x2="471" y2="129" style="fill:none;stroke:rgb(5,225,186)"></line><line x1="471" y1="129" x2="371" y2="129" style="fill:none;stroke:rgb(5,225,186)"></line><line x1="371" y1="129" x2="471" y2="129" style="fill:none;stroke:rgb(5,225,186)"></line><line x1="471" y1="129" x2="400" y2="200" style="fill:none;stroke:rgb(43,99,37)"></line><line x1="400" y1="200" x2="471" y2="271" style="fill:none;stroke:rgb(43,99,37)"></line><line x1="471" y1="271" x2="542" y2="200" style="fill:none;stroke:rgb(43,99,37)"></line><line x1="542" y1="200" x2="471" y2="129" style="fill:none;stroke:rgb(43,99,37)"></line><line x1="471" y1="129" x2="542" y2="200" style="fill:none;stroke:rgb(43,99,37)"></line><line x1="542" y1="200" x2="442" y2="200" style="fill:none;stroke:rgb(196,26,95)"></line><line x1="442" y1="200" x2="442" y2="300" style="fill:none;stroke:rgb(196,26,95)"></line><line x1="442" y1="300" x2="542" y2="300" style="fill:none;stroke:rgb(196,26,95)"></line><line x1="542" y1="300" x2="542" y2="200" style="fill:none;stroke:rgb(196,26,95)"></line><line x1="542" y1="200" x2="542" y2="300" style="fill:none;stroke:rgb(196,26,95)"></line><line x1="542" y1="300" x2="471" y2="229" style="fill:none;stroke:rgb(16,231,228)"></line><line x1="471" y1="229" x2="400" y2="300" style="fill:none;stroke:rgb(16,231,228)"></line><line x1="400" y1="300" x2="471" y2="371" style="fill:none;stroke:rgb(16,231,228)"></line><line x1="471" y1="371" x2="542" y2="300" style="fill:none;stroke:rgb(16,231,228)"></line><line x1="542" y1="300" x2="471" y2="371" style="fill:none;stroke:rgb(16,231,228)"></line><line x1="471" y1="371" x2="471" y2="271" style="fill:none;stroke:rgb(89,250,161)"></line><line x1="471" y1="271" x2="371" y2="271" style="fill:none;stroke:rgb(89,250,161)"></line><line x1="371" y1="271" x2="371" y2="371" style="fill:none;stroke:rgb(89,250,161)"></line><line x1="371" y1="371" x2="471" y2="371" style="fill:none;stroke:rgb(89,250,161)"></line><line x1="471" y1="371" x2="371" y2="371" style="fill:none;stroke:rgb(89,250,161)"></line><line x1="371" y1="371" x2="442" y2="300" style="fill:none;stroke:rgb(17,179,55)"></line><line x1="442" y1="300" x2="371" y2="229" style="fill:none;stroke:rgb(17,179,55)"></line><line x1="371" y1="229" x2="300" y2="300" style="fill:none;stroke:rgb(17,179,55)"></line><line x1="300" y1="300" x2="371" y2="371" style="fill:none;stroke:rgb(17,179,55)"></line><line x1="371" y1="371" x2="300" y2="300" style="fill:none;stroke:rgb(17,179,55)"></line></svg>